<?xml version="1.0" encoding="UTF-8"?>
<svg id="Layer_1" xmlns="http://www.w3.org/2000/svg" version="1.1" viewBox="0 0 220 140">
  <!-- Generator: Adobe Illustrator 30.1.0, SVG Export Plug-In . SVG Version: 2.1.1 Build 136)  -->
  <defs>
    <style>
      .st0 {
        fill: #3e4347;
      }

      .st1, .st2 {
        isolation: isolate;
      }

      .st3 {
        fill: #fff;
      }

      .st2 {
        fill: #333;
        font-family: ArialMT, Arial;
        font-size: 16px;
      }

      .st4 {
        fill: #94989b;
      }

      .st5 {
        fill: #f2b200;
      }
    </style>
  </defs>
  <rect class="st3" width="220" height="140" rx="12" ry="12"/>
  <g class="st1">
    <g>
      <path class="st5" d="M94.18,40.18c-.58.58-1.52.58-2.09,0-.58-.58-.58-1.52,0-2.09.58-.58,1.51-.58,2.09,0,.58.58.58,1.52,0,2.09ZM98.2,34.07h-6.32l-3.81,3.81v6.32l19.28,21.8,12.65-12.65-21.8-19.29Z"/>
      <path class="st4" d="M93.71,38.98c-.17-.81-.57-1.61-.98-2.32-1.04-1.77-2.58-3.21-4.34-4.24-2.36-1.39-5.09-2.01-7.79-2.23-.32-.03-.59.29-.59.59,0,.34.27.57.59.59,2.97.24,5.93,1.05,8.35,2.83.72.53,1.49,1.29,2.09,2.05.11.14-.07-.1.03.04.03.04.06.08.09.12.06.08.11.16.17.24.11.17.22.34.33.51.17.29.33.58.47.89.04.09.09.19.13.28.02.04.03.08.05.12-.08-.19,0-.02,0,.02.06.14.11.29.15.43.04.12.08.25.1.38.16.75,1.3.44,1.15-.3Z"/>
      <path class="st0" d="M89.54,36.4s-.06-.04-.08-.07c-.3-.25-.56-.53-.81-.82-.55-.64-1.04-1.46-1.45-2.27-1.04-2.06-1.64-4.36-1.82-6.66-.03-.32-.25-.59-.59-.59-.3,0-.62.27-.59.59.21,2.51.85,4.98,1.98,7.24.45.9.99,1.75,1.64,2.52.27.32.56.63.89.9l.84-.84Z"/>
    </g>
  </g>
  <text class="st2" transform="translate(27.74 100)"><tspan x="0" y="0">Publisher Price Injector</tspan></text>
</svg>