<?xml version="1.0" encoding="UTF-8"?>
<svg id="Layer_1" xmlns="http://www.w3.org/2000/svg" version="1.1" viewBox="0 0 128 128">
  <!-- Generator: Adobe Illustrator 30.1.0, SVG Export Plug-In . SVG Version: 2.1.1 Build 136)  -->
  <defs>
    <style>
      .st0 {
        fill: #3e4347;
      }

      .st1 {
        isolation: isolate;
      }

      .st2 {
        fill: #fff;
      }

      .st3 {
        fill: #94989b;
      }

      .st4 {
        fill: #f2b200;
      }
    </style>
  </defs>
  <rect class="st2" width="128" height="128" rx="16" ry="16"/>
  <g class="st1">
    <g>
      <path class="st4" d="M35.53,46.33c-1.04,1.04-2.73,1.04-3.77,0-1.04-1.04-1.04-2.73,0-3.77,1.04-1.04,2.73-1.04,3.77,0,1.04,1.04,1.04,2.73,0,3.77ZM42.76,35.32h-11.38l-6.86,6.86v11.38l34.71,39.24,22.76-22.76-39.24-34.71Z"/>
      <path class="st3" d="M34.67,44.17c-.3-1.46-1.02-2.9-1.77-4.18-1.87-3.19-4.64-5.77-7.81-7.63-4.25-2.5-9.16-3.62-14.03-4.02-.58-.05-1.07.52-1.07,1.07,0,.62.49,1.02,1.07,1.07,5.34.44,10.67,1.89,15.03,5.09,1.29.95,2.68,2.32,3.75,3.69.19.25-.13-.18.05.07.06.07.11.15.16.22.11.14.21.29.31.44.21.3.4.61.59.92.31.52.59,1.05.85,1.6.08.17.15.33.23.5.03.07.06.14.09.21-.14-.34-.02-.04.01.04.1.26.19.52.28.78.07.22.14.45.19.68.28,1.35,2.34.8,2.06-.54Z"/>
      <path class="st0" d="M27.17,39.53c-.05-.04-.1-.08-.15-.12-.54-.44-1.02-.95-1.47-1.48-.99-1.16-1.87-2.63-2.6-4.08-1.87-3.7-2.94-7.85-3.28-11.98-.05-.58-.45-1.07-1.07-1.07-.55,0-1.11.49-1.07,1.07.37,4.52,1.53,8.97,3.56,13.03.81,1.62,1.79,3.15,2.95,4.54.48.57,1.02,1.13,1.61,1.61l1.52-1.52Z"/>
    </g>
  </g>
</svg>