<?xml version="1.0" encoding="UTF-8"?>
<svg id="Layer_1" xmlns="http://www.w3.org/2000/svg" version="1.1" viewBox="0 0 32 32">
  <!-- Generator: Adobe Illustrator 30.1.0, SVG Export Plug-In . SVG Version: 2.1.1 Build 136)  -->
  <defs>
    <style>
      .st0 {
        fill: #3e4347;
      }

      .st1 {
        isolation: isolate;
      }

      .st2 {
        fill: #fff;
      }

      .st3 {
        fill: #94989b;
      }

      .st4 {
        fill: #f2b200;
      }
    </style>
  </defs>
  <rect class="st2" width="32" height="32" rx="6" ry="6"/>
  <g class="st1">
    <g>
      <path class="st4" d="M8.09,12.09c-.29.29-.76.29-1.05,0-.29-.29-.29-.76,0-1.05.29-.29.76-.29,1.05,0,.29.29.29.76,0,1.05ZM10.1,9.03h-3.16l-1.91,1.91v3.16l9.64,10.9,6.32-6.32-10.9-9.64Z"/>
      <path class="st3" d="M7.85,11.49c-.08-.41-.28-.81-.49-1.16-.52-.89-1.29-1.6-2.17-2.12-1.18-.69-2.55-1-3.9-1.12-.16-.01-.3.14-.3.3,0,.17.14.28.3.3,1.48.12,2.96.52,4.18,1.42.36.26.74.64,1.04,1.03.05.07-.04-.05.01.02.02.02.03.04.05.06.03.04.06.08.09.12.06.08.11.17.16.25.09.14.16.29.24.44.02.05.04.09.06.14,0,.02.02.04.02.06-.04-.1,0-.01,0,.01.03.07.05.14.08.22.02.06.04.13.05.19.08.38.65.22.57-.15Z"/>
      <path class="st0" d="M5.77,10.2s-.03-.02-.04-.03c-.15-.12-.28-.26-.41-.41-.28-.32-.52-.73-.72-1.13-.52-1.03-.82-2.18-.91-3.33-.01-.16-.12-.3-.3-.3-.15,0-.31.13-.3.3.1,1.26.42,2.49.99,3.62.22.45.5.88.82,1.26.13.16.28.31.45.45l.42-.42Z"/>
    </g>
  </g>
</svg>